<svg width="88" height="88" viewBox="0 0 88 88" fill="none" xmlns="http://www.w3.org/2000/svg">
<path d="M87.5 44C87.5 68.0244 68.0244 87.5 44 87.5C19.9756 87.5 0.500031 68.0244 0.500031 44C0.500031 19.9756 19.9756 0.5 44 0.5C68.0244 0.5 87.5 19.9756 87.5 44Z" stroke="#BE9E51"/>
<path d="M53.2725 23.2L36.5045 23.2C34.3712 23.2 32.3019 23.392 30.2965 23.776C28.2485 24.16 26.4139 24.8213 24.7925 25.76C23.1712 26.6987 21.8912 28.0213 20.9525 29.728C20.0139 31.392 19.5445 33.5253 19.5445 36.128C19.5445 38.688 20.1845 40.9493 21.4645 42.912C22.7019 44.8747 24.3659 46.4107 26.4565 47.52C28.5045 48.5867 30.7659 49.12 33.2405 49.12C35.4592 49.12 37.2939 48.9493 38.7445 48.608C40.1525 48.224 41.3685 47.7973 42.3925 47.328V53.536C42.3925 56.6507 42.3285 59.1253 42.2005 60.96C42.0725 62.7947 41.8165 64.16 41.4325 65.056C41.0059 65.952 40.3872 66.5493 39.5765 66.848C38.7232 67.104 37.5712 67.232 36.1205 67.232L35.9925 68H53.2725L53.1445 67.232C51.6939 67.232 50.5632 67.104 49.7525 66.848C48.8992 66.5493 48.2805 65.952 47.8965 65.056C47.4699 64.16 47.1925 62.7947 47.0645 60.96C46.9365 59.1253 46.8725 56.6507 46.8725 53.536L46.8725 37.664C46.8725 34.5493 46.9365 32.0747 47.0645 30.24C47.1925 28.4053 47.4699 27.04 47.8965 26.144C48.2805 25.248 48.8992 24.672 49.7525 24.416C50.5632 24.1173 51.6939 23.968 53.1445 23.968L53.2725 23.2ZM42.3925 24.672L42.3925 45.728C41.2832 46.3253 39.9605 46.7733 38.4245 47.072C36.8459 47.3707 35.4805 47.52 34.3285 47.52C32.5365 47.52 30.9152 47.136 29.4645 46.368C27.9712 45.5573 26.7765 44.32 25.8805 42.656C24.9845 40.992 24.5365 38.816 24.5365 36.128C24.5365 33.6107 24.9632 31.6053 25.8165 30.112C26.6272 28.576 27.7152 27.424 29.0805 26.656C30.4032 25.8453 31.8752 25.312 33.4965 25.056C35.1179 24.8 36.6965 24.672 38.2325 24.672H42.3925Z" fill="#BE9E51"/>
<path d="M54.8054 43.424C56.2988 43.5947 57.8348 43.936 59.4134 44.448C60.9921 44.9173 62.4641 45.6213 63.8294 46.56C65.1948 47.4987 66.3041 48.6933 67.1574 50.144C68.0108 51.5947 68.4374 53.3653 68.4374 55.456C68.4374 58.4427 67.6481 60.8533 66.0694 62.688C64.5334 64.5227 62.3788 65.8667 59.6054 66.72C56.8748 67.5733 53.7174 68 50.1334 68H35.0934L35.2214 67.232C36.6721 67.232 37.8241 67.104 38.6774 66.848C39.5308 66.5493 40.1494 65.952 40.5334 65.056C40.9601 64.16 41.2161 62.7947 41.3014 60.96C41.4294 59.1253 41.4934 56.6507 41.4934 53.536V37.664C41.4934 34.5493 41.4294 32.0747 41.3014 30.24C41.2161 28.4053 40.9601 27.04 40.5334 26.144C40.1494 25.248 39.5308 24.672 38.6774 24.416C37.8241 24.1173 36.6721 23.968 35.2214 23.968L35.0934 23.2H49.4294C50.3681 23.2 51.4988 23.264 52.8214 23.392C54.1868 23.52 55.5734 23.776 56.9814 24.16C58.4321 24.544 59.7761 25.12 61.0134 25.888C62.2934 26.6133 63.3174 27.5947 64.0854 28.832C64.8534 30.0267 65.2374 31.52 65.2374 33.312C65.2374 35.4453 64.6828 37.1947 63.5734 38.56C62.4641 39.9253 61.0988 40.992 59.4774 41.76C57.8988 42.528 56.3414 43.0827 54.8054 43.424ZM59.6694 33.312C59.6694 31.6907 59.2641 30.24 58.4534 28.96C57.6428 27.6373 56.2348 26.592 54.2294 25.824C52.2668 25.056 49.5148 24.672 45.9734 24.672V42.976H46.5494C48.8108 42.976 50.9228 42.72 52.8854 42.208C54.8908 41.6533 56.5121 40.6933 57.7494 39.328C59.0294 37.92 59.6694 35.9147 59.6694 33.312ZM48.4694 66.528C49.0668 66.528 49.9414 66.4853 51.0934 66.4C52.2454 66.272 53.4828 66.0373 54.8054 65.696C56.1708 65.312 57.4508 64.736 58.6454 63.968C59.8828 63.1573 60.8854 62.0693 61.6534 60.704C62.4641 59.296 62.8694 57.5467 62.8694 55.456C62.8694 52.896 62.3148 50.8693 61.2054 49.376C60.0961 47.84 58.6881 46.7093 56.9814 45.984C55.3174 45.2587 53.5681 44.7893 51.7334 44.576C49.9414 44.3627 48.3414 44.256 46.9334 44.256H45.9734V54.496C45.9734 57.44 46.0161 59.7227 46.1014 61.344C46.2294 62.9653 46.4641 64.16 46.8054 64.928C47.1468 65.6533 47.7014 66.1867 48.4694 66.528Z" fill="#BE9E51"/>
</svg>
